<svg width="502" height="502" viewBox="0 0 502 502" fill="none" xmlns="http://www.w3.org/2000/svg">
<g clip-path="url(#clip0_54823_94)">
<mask id="mask0_54823_94" style="mask-type:luminance" maskUnits="userSpaceOnUse" x="0" y="0" width="502" height="502">
<path d="M0 0H501.575V501.985H0V0Z" fill="white"/>
</mask>
<g mask="url(#mask0_54823_94)">
<mask id="mask1_54823_94" style="mask-type:luminance" maskUnits="userSpaceOnUse" x="0" y="0" width="502" height="503">
<path d="M250.82 0C112.297 0 0 112.388 0 251.025C0 389.664 112.297 502.053 250.82 502.053C389.346 502.053 501.643 389.664 501.643 251.025C501.643 112.388 389.346 0 250.82 0Z" fill="white"/>
</mask>
<g mask="url(#mask1_54823_94)">
<path d="M250.82 0C112.297 0 0 112.388 0 251.025C0 389.664 112.297 502.053 250.82 502.053C389.346 502.053 501.643 389.664 501.643 251.025C501.643 112.388 389.346 0 250.82 0Z" fill="white" stroke="black" stroke-width="11"/>
</g>
</g>
<mask id="mask2_54823_94" style="mask-type:luminance" maskUnits="userSpaceOnUse" x="0" y="260" width="502" height="243">
<path d="M0 260H501.567V502.271H0V260Z" fill="white"/>
</mask>
<g mask="url(#mask2_54823_94)">
<mask id="mask3_54823_94" style="mask-type:luminance" maskUnits="userSpaceOnUse" x="-1" y="260" width="503" height="243">
<path d="M-0.0629883 260.151C-0.0629883 392.03 114.137 502.271 250.752 502.271C387.37 502.271 501.567 392.03 501.567 260.151H-0.0629883Z" fill="white"/>
</mask>
<g mask="url(#mask3_54823_94)">
<path d="M-0.0630188 260.151C-0.0630188 392.03 114.137 502.271 250.752 502.271C387.37 502.271 501.567 392.03 501.567 260.151H-0.0630188Z" fill="#1CA7EC" stroke="black" stroke-width="12"/>
</g>
</g>
<mask id="mask4_54823_94" style="mask-type:luminance" maskUnits="userSpaceOnUse" x="58" y="340" width="386" height="145">
<path d="M443.361 340.829H58.627V484.253H443.361V340.829Z" fill="white"/>
</mask>
<g mask="url(#mask4_54823_94)">
<path d="M118.667 377.854L89.1346 400.415L84.9285 394.894L97.8391 385.031L87.2484 371.151L74.3379 381.014L70.1318 375.492L99.6647 352.93L103.871 358.452L91.172 368.153L101.763 382.033L114.461 372.332L118.667 377.854Z" fill="white"/>
<path d="M123.101 413.049L127.802 400.734C127.996 400.176 128.25 399.538 128.568 398.816C128.883 398.089 129.236 397.312 129.627 396.484C128.886 397.004 128.175 397.473 127.489 397.897C126.808 398.316 126.2 398.662 125.663 398.937L114.185 405.276L123.101 413.049ZM123.091 431.654L119.057 428.141C118.605 427.75 118.335 427.315 118.25 426.839C118.162 426.367 118.194 425.902 118.351 425.445L121.235 417.895L109.626 407.78L102.545 411.676C102.187 411.883 101.754 411.982 101.244 411.969C100.732 411.954 100.256 411.757 99.8119 411.374L95.7471 407.83L131.17 389.398L136.486 394.021L123.091 431.654ZM135.346 381.282C136.024 381.33 136.829 381.584 137.757 382.049C138.685 382.508 139.572 383.104 140.42 383.836C141.743 384.994 142.543 386.124 142.82 387.227C143.103 388.333 142.906 389.271 142.235 390.044C141.925 390.394 141.582 390.647 141.206 390.801C140.836 390.95 140.442 391.03 140.026 391.043C139.608 391.058 139.174 391 138.725 390.871C138.281 390.745 137.837 390.574 137.394 390.357L136.173 391.094L133.894 389.105L135.77 386.945C136.516 387.437 137.106 387.719 137.545 387.793C137.981 387.861 138.294 387.788 138.483 387.571C138.69 387.328 138.738 387.023 138.624 386.652C138.516 386.276 138.254 385.905 137.837 385.541C137.595 385.327 137.348 385.158 137.101 385.037C136.852 384.916 136.617 384.822 136.395 384.754C136.173 384.681 135.972 384.61 135.79 384.542C135.613 384.477 135.467 384.391 135.346 384.29C135.205 384.164 135.124 384.025 135.104 383.876C135.089 383.73 135.099 383.543 135.134 383.321L135.346 381.282Z" fill="white"/>
<path d="M136.466 439.849L130.646 436.063L150.88 404.871L156.7 408.656L136.466 439.849Z" fill="white"/>
<path d="M191.397 432.762C191.074 433.019 190.774 433.181 190.499 433.246C190.222 433.314 189.924 433.284 189.602 433.155C189.264 433.022 188.949 432.752 188.654 432.348C188.364 431.944 188.011 431.485 187.594 430.965C187.176 430.448 186.656 429.923 186.031 429.39C185.406 428.853 184.599 428.386 183.61 427.987C182.728 427.631 181.908 427.429 181.149 427.381C180.395 427.328 179.712 427.401 179.102 427.603C178.497 427.8 177.975 428.118 177.538 428.562C177.1 429.007 176.754 429.549 176.499 430.188C176.177 431.003 176.131 431.77 176.368 432.489C176.61 433.211 177.029 433.912 177.629 434.599C178.227 435.28 178.943 435.962 179.778 436.648C180.61 437.335 181.457 438.049 182.319 438.788C183.187 439.53 184.004 440.318 184.77 441.15C185.542 441.986 186.165 442.902 186.636 443.896C187.113 444.885 187.378 445.973 187.433 447.157C187.486 448.343 187.226 449.65 186.656 451.083C186.036 452.643 185.186 453.996 184.105 455.141C183.028 456.285 181.775 457.16 180.342 457.766C178.915 458.372 177.347 458.667 175.632 458.654C173.922 458.647 172.114 458.261 170.206 457.493C169.109 457.054 168.07 456.517 167.089 455.878C166.105 455.237 165.203 454.521 164.376 453.728C163.554 452.941 162.827 452.098 162.197 451.194C161.564 450.294 161.05 449.367 160.654 448.418L163.77 446.087C164.018 445.933 164.3 445.832 164.618 445.784C164.933 445.731 165.228 445.761 165.505 445.875C165.909 446.031 166.274 446.364 166.605 446.874C166.94 447.386 167.346 447.972 167.825 448.63C168.302 449.284 168.899 449.943 169.621 450.609C170.339 451.27 171.297 451.838 172.495 452.315C174.323 453.042 175.914 453.173 177.266 452.709C178.618 452.244 179.616 451.202 180.262 449.579C180.625 448.671 180.69 447.841 180.463 447.086C180.234 446.334 179.823 445.612 179.233 444.926C178.64 444.234 177.922 443.56 177.074 442.907C176.232 442.256 175.382 441.572 174.523 440.858C173.66 440.138 172.841 439.369 172.061 438.546C171.28 437.718 170.662 436.797 170.206 435.78C169.747 434.765 169.505 433.627 169.479 432.368C169.459 431.111 169.764 429.693 170.397 428.118C170.894 426.866 171.63 425.746 172.606 424.757C173.579 423.762 174.729 422.99 176.056 422.445C177.387 421.9 178.862 421.632 180.484 421.637C182.102 421.637 183.822 422.001 185.638 422.728C187.675 423.543 189.423 424.613 190.883 425.938C192.34 427.258 193.45 428.731 194.211 430.359L191.397 432.762Z" fill="white"/>
<path d="M214.639 455.503L212.793 442.451C212.692 441.865 212.601 441.179 212.521 440.392C212.445 439.604 212.382 438.756 212.329 437.848C211.931 438.655 211.535 439.41 211.139 440.109C210.748 440.803 210.385 441.409 210.05 441.926L203.08 453.03L214.639 455.503ZM223.646 471.786L218.421 470.665C217.836 470.544 217.387 470.294 217.08 469.918C216.777 469.547 216.578 469.123 216.485 468.646L215.355 460.651L200.296 457.431L195.999 464.275C195.782 464.624 195.45 464.916 195.001 465.154C194.549 465.396 194.037 465.456 193.468 465.335L188.192 464.205L210.251 430.893L217.13 432.366L223.646 471.786ZM209.959 421.787C210.584 421.499 211.414 421.33 212.45 421.282C213.484 421.229 214.548 421.32 215.637 421.555C217.365 421.918 218.615 422.519 219.39 423.352C220.161 424.18 220.441 425.096 220.227 426.098C220.131 426.557 219.959 426.943 219.712 427.258C219.463 427.569 219.158 427.831 218.794 428.046C218.436 428.255 218.03 428.414 217.574 428.52C217.123 428.629 216.649 428.699 216.152 428.732L215.446 429.954L212.49 429.318L213.086 426.522C213.978 426.59 214.631 426.549 215.042 426.4C215.458 426.254 215.698 426.037 215.758 425.754C215.824 425.439 215.718 425.146 215.436 424.876C215.153 424.609 214.742 424.412 214.205 424.291C213.887 424.225 213.592 424.197 213.318 424.21C213.048 424.225 212.796 424.255 212.561 424.301C212.332 424.349 212.122 424.389 211.936 424.422C211.754 424.45 211.585 424.447 211.431 424.412C211.25 424.371 211.111 424.291 211.018 424.17C210.93 424.043 210.849 423.874 210.776 423.665L209.959 421.787Z" fill="white"/>
<path d="M265.161 435.678L264.868 472.867L261.328 472.837C260.776 472.829 260.314 472.736 259.946 472.554C259.583 472.367 259.233 472.059 258.897 471.635L239.683 446.691C239.776 447.822 239.819 448.867 239.814 449.821L239.632 472.665L233.54 472.614L233.833 435.426L237.454 435.456C237.749 435.456 238.003 435.471 238.22 435.497C238.434 435.524 238.624 435.577 238.785 435.658C238.946 435.734 239.1 435.845 239.249 435.991C239.403 436.14 239.574 436.334 239.763 436.577L259.048 461.632C259.001 461.026 258.96 460.435 258.927 459.855C258.9 459.269 258.887 458.729 258.887 458.23L259.069 435.628L265.161 435.678Z" fill="white"/>
<path d="M317.209 453.455C317.572 453.354 317.93 453.41 318.288 453.616L321.697 455.757C320.722 457.957 319.302 459.83 317.441 461.369C315.577 462.904 313.157 464.075 310.179 464.882C307.521 465.604 305.004 465.796 302.624 465.457C300.249 465.122 298.09 464.347 296.149 463.136C294.212 461.924 292.533 460.304 291.115 458.27C289.703 456.239 288.639 453.889 287.918 451.224C287.187 448.526 286.947 445.94 287.202 443.461C287.459 440.986 288.148 438.724 289.27 436.678C290.394 434.634 291.912 432.867 293.829 431.378C295.75 429.892 298.027 428.791 300.657 428.077C303.272 427.365 305.71 427.166 307.97 427.482C310.229 427.792 312.257 428.448 314.052 429.45L312.66 433.155C312.584 433.392 312.463 433.614 312.297 433.821C312.128 434.023 311.863 434.172 311.5 434.265C311.258 434.333 310.981 434.333 310.673 434.265C310.37 434.2 310.032 434.104 309.664 433.982C309.294 433.861 308.868 433.735 308.383 433.599C307.904 433.458 307.365 433.362 306.759 433.306C306.159 433.246 305.481 433.243 304.722 433.296C303.968 433.344 303.121 433.495 302.18 433.75C300.571 434.189 299.18 434.876 298.004 435.81C296.834 436.738 295.912 437.879 295.241 439.232C294.575 440.579 294.187 442.104 294.081 443.805C293.98 445.508 294.202 447.363 294.747 449.367C295.291 451.386 296.06 453.107 297.056 454.525C298.057 455.938 299.19 457.054 300.455 457.866C301.719 458.681 303.091 459.196 304.571 459.411C306.048 459.62 307.549 459.519 309.069 459.108C309.982 458.861 310.794 458.588 311.5 458.29C312.206 457.987 312.836 457.644 313.396 457.261C313.954 456.877 314.465 456.443 314.929 455.958C315.393 455.469 315.83 454.896 316.241 454.242C316.374 454.048 316.518 453.884 316.674 453.748C316.836 453.606 317.012 453.51 317.209 453.455Z" fill="white"/>
<path d="M355.796 424.92C357.011 427.362 357.735 429.826 357.965 432.309C358.199 434.787 357.96 437.154 357.248 439.415C356.542 441.672 355.365 443.741 353.718 445.624C352.069 447.509 349.986 449.084 347.465 450.348C344.948 451.607 342.444 452.331 339.95 452.518C337.454 452.7 335.089 452.402 332.85 451.62C330.61 450.84 328.568 449.616 326.717 447.945C324.869 446.277 323.336 444.22 322.118 441.778C320.902 439.342 320.179 436.882 319.949 434.398C319.722 431.91 319.969 429.538 320.695 427.282C321.417 425.021 322.599 422.949 324.246 421.063C325.887 419.173 327.965 417.598 330.479 416.339C332.159 415.499 333.841 414.903 335.522 414.552C337.202 414.204 338.841 414.075 340.434 414.169C342.033 414.257 343.584 414.563 345.084 415.087C346.59 415.612 347.999 416.334 349.311 417.248C350.622 418.156 351.825 419.256 352.921 420.549C354.023 421.841 354.982 423.299 355.796 424.92ZM349.472 428.089C348.564 426.267 347.5 424.753 346.285 423.547C345.067 422.335 343.753 421.455 342.341 420.902C340.934 420.344 339.449 420.12 337.883 420.226C336.322 420.334 334.731 420.796 333.112 421.609C331.483 422.424 330.156 423.426 329.128 424.617C328.106 425.803 327.393 427.128 326.989 428.594C326.581 430.055 326.493 431.632 326.727 433.328C326.964 435.024 327.534 436.786 328.442 438.608C329.355 440.44 330.419 441.957 331.629 443.161C332.845 444.367 334.161 445.24 335.573 445.785C336.985 446.33 338.47 446.55 340.031 446.441C341.597 446.335 343.193 445.873 344.822 445.058C346.441 444.246 347.762 443.246 348.786 442.06C349.815 440.869 350.531 439.547 350.934 438.093C351.338 436.639 351.421 435.07 351.187 433.379C350.957 431.683 350.385 429.921 349.472 428.089ZM337.731 410.212L333.616 412.271C333.387 412.387 333.084 412.483 332.708 412.564C332.338 412.645 331.871 412.564 331.306 412.321L328.21 410.838C327.955 410.696 327.756 410.583 327.615 410.494C327.595 410.663 327.564 410.893 327.524 411.181L326.848 414.552C326.702 415.153 326.485 415.577 326.203 415.824C325.92 416.074 325.666 416.256 325.436 416.369L321.502 418.328L323.873 409.233L329.027 406.658L337.731 410.212Z" fill="white"/>
<path d="M383.928 385.164L375.546 392.604L396.425 416.185L391.241 420.778L370.362 397.197L361.98 404.637L358.218 400.387L380.166 380.914L383.928 385.164Z" fill="white"/>
<path d="M418.306 362.523C420.465 364.187 422.184 366.084 423.47 368.217C424.762 370.352 425.573 372.588 425.911 374.93C426.254 377.267 426.095 379.641 425.437 382.057C424.777 384.474 423.584 386.801 421.857 389.042C420.142 391.27 418.2 393.009 416.037 394.261C413.871 395.508 411.611 396.267 409.259 396.542C406.906 396.82 404.536 396.608 402.148 395.906C399.755 395.207 397.478 394.026 395.319 392.363C393.168 390.703 391.451 388.8 390.165 386.66C388.874 384.52 388.065 382.276 387.734 379.927C387.399 377.58 387.56 375.2 388.219 372.79C388.879 370.375 390.064 368.053 391.779 365.824C392.929 364.33 394.187 363.064 395.551 362.019C396.911 360.969 398.33 360.139 399.808 359.525C401.288 358.907 402.819 358.506 404.397 358.324C405.971 358.142 407.549 358.178 409.128 358.425C410.714 358.675 412.28 359.142 413.828 359.828C415.381 360.515 416.874 361.413 418.306 362.523ZM413.989 368.126C412.375 366.882 410.762 365.983 409.148 365.431C407.534 364.873 405.971 364.651 404.458 364.764C402.945 364.873 401.51 365.317 400.151 366.097C398.787 366.872 397.548 367.98 396.439 369.418C395.329 370.852 394.573 372.33 394.17 373.85C393.761 375.371 393.693 376.883 393.968 378.382C394.238 379.876 394.845 381.337 395.793 382.763C396.742 384.184 398.023 385.516 399.636 386.761C401.25 388.007 402.869 388.908 404.488 389.466C406.102 390.026 407.663 390.243 409.168 390.122C410.681 389.996 412.116 389.542 413.475 388.759C414.831 387.972 416.067 386.862 417.177 385.428C418.286 383.99 419.045 382.511 419.456 380.997C419.865 379.482 419.935 377.986 419.668 376.504C419.398 375.018 418.785 373.562 417.832 372.134C416.884 370.708 415.603 369.373 413.989 368.126ZM395.642 357.143L392.838 360.787C392.677 360.989 392.45 361.209 392.152 361.443C391.85 361.681 391.396 361.814 390.791 361.847H387.351C387.056 361.835 386.824 361.822 386.655 361.807C386.716 361.963 386.791 362.18 386.877 362.463L387.755 365.794C387.876 366.395 387.863 366.869 387.714 367.217C387.56 367.561 387.407 367.833 387.25 368.035L384.567 371.528L382.742 362.291L386.262 357.729L395.642 357.143Z" fill="white"/>
</g>
<mask id="mask5_54823_94" style="mask-type:luminance" maskUnits="userSpaceOnUse" x="30" y="10" width="442" height="195">
<path d="M471.765 10.6952H30.2236V204.512H471.765V10.6952Z" fill="white"/>
</mask>
<g mask="url(#mask5_54823_94)">
<path d="M78.3592 115.187L128.574 144.36L120.427 158.407L76.6572 165.546L76.0041 161.544L78.039 158.038L109.902 176.552L99.6364 194.248L45.9189 163.038L54.1066 148.923L97.841 141.854L98.4891 145.854L96.4542 149.362L64.5913 130.848L74.8567 113.15L78.3592 115.187ZM74.2919 122.2L76.3268 118.692L79.8293 120.729L73.6312 131.414L70.1287 129.377L72.1612 125.872L110.33 148.047L57.2938 156.62L56.6458 152.62L60.1508 154.654L54.9589 163.603L51.4564 161.569L53.4888 158.061L100.201 185.2L98.1663 188.708L94.6638 186.672L100.862 175.986L104.364 178.021L102.332 181.528L64.1854 159.366L117.232 150.712L117.885 154.715L114.38 152.678L119.534 143.797L123.037 145.831L121.002 149.337L74.2919 122.2Z" fill="#714D00"/>
<path d="M137.307 90.6751L149.226 80.8076L167.061 102.387L166.595 104.351C165.637 108.391 163.917 112.298 161.436 116.068C158.995 119.78 156.113 123.011 152.787 125.764C147.945 129.771 142.708 132.348 137.072 133.494C131.366 134.652 125.828 134.284 120.457 132.386C115.086 130.488 110.457 127.187 106.568 122.486C102.683 117.784 100.312 112.613 99.4574 106.975C98.6001 101.335 99.2986 95.7981 101.55 90.3697C103.772 85.0171 107.32 80.3256 112.196 76.2878C116.256 72.9262 120.535 70.5515 125.036 69.1635C129.638 67.7427 134.233 67.4196 138.822 68.1919L142.688 68.843L140.166 87.5256L136.2 87.0461C131.789 86.5136 127.929 87.6139 124.623 90.3521C122.492 92.1186 120.982 94.0921 120.094 96.2776C119.244 98.3748 119.012 100.527 119.401 102.738C119.799 105.009 120.853 107.177 122.563 109.244C124.24 111.273 126.154 112.696 128.307 113.514C130.42 114.317 132.589 114.506 134.818 114.087C137.11 113.658 139.294 112.583 141.371 110.862C143.623 108.997 145.239 106.864 146.22 104.464L149.97 105.999L146.848 108.583L134.185 93.2593L137.307 90.6751ZM142.471 96.9237L139.889 93.7994L143.008 91.2152L154.637 105.285L153.72 107.531C152.227 111.187 149.834 114.38 146.536 117.108C143.384 119.72 139.974 121.368 136.313 122.057C132.591 122.756 128.965 122.435 125.432 121.095C121.945 119.77 118.906 117.542 116.319 114.413C113.702 111.245 112.068 107.821 111.422 104.141C110.764 100.401 111.153 96.7647 112.59 93.2265C113.987 89.7792 116.279 86.7382 119.459 84.106C124.552 79.8865 130.458 78.183 137.173 78.9956L136.686 83.0209L132.672 82.4783L134.134 71.6468L138.149 72.1893L137.475 76.1868C134.152 75.6266 130.801 75.8688 127.424 76.9111C123.947 77.9836 120.593 79.8587 117.358 82.5363C113.515 85.7186 110.739 89.3653 109.034 93.4789C107.36 97.5142 106.836 101.608 107.466 105.759C108.096 109.915 109.879 113.769 112.812 117.317C115.744 120.866 119.191 123.341 123.153 124.739C127.117 126.14 131.219 126.407 135.461 125.547C139.77 124.671 143.825 122.66 147.622 119.515C150.323 117.279 152.673 114.645 154.668 111.609C156.624 108.633 157.973 105.59 158.712 102.476L162.654 103.414L159.532 105.999L145.565 89.1003L148.686 86.5161L151.269 89.6404L142.471 96.9237Z" fill="#714D00"/>
<path d="M205.037 84.7359L181.448 93.2457L180.074 89.4324L184.121 89.6192L183.42 104.847L162.949 112.231L167.932 44.355L184.491 38.3815L231.68 87.4362L210.915 94.9289L200.667 83.6482L203.663 80.9202L205.037 84.7359ZM204.838 76.1883L215.086 87.4665L212.09 90.1946L210.716 86.3813L223.054 81.9296L224.428 85.7429L221.511 88.5542L180.474 45.8994L183.394 43.0856L184.766 46.9013L173.154 51.0906L171.78 47.2774L175.82 47.5726L171.488 106.596L167.448 106.298L166.074 102.485L178.124 98.139L179.496 101.952L175.451 101.766L176.15 86.5378L202.291 77.1069L204.838 76.1883ZM193.748 76.0495L178.679 59.4868L181.675 56.7587L185.722 56.948L184.675 79.3227L180.628 79.1334L179.257 75.3202L195.37 69.5082L196.744 73.3214L193.748 76.0495ZM203.819 75.0779L176.299 85.0059L178.084 46.7903L199.739 70.5908L203.819 75.0779ZM155.566 32.3172L169.412 27.3228L192.871 39.2976L173.888 46.1468L144.655 36.254L155.566 32.3172ZM158.312 39.9436L156.938 36.1304L158.237 32.2894L175.144 38.013L173.845 41.8515L172.471 38.0383L181.327 34.8433L182.701 38.6566L180.86 42.2679L167.294 35.343L169.135 31.7317L170.507 35.5449L158.312 39.9436Z" fill="#714D00"/>
<path d="M254.366 67.002L255.241 90.1919L234.655 90.9692L233.772 67.6254L237.822 67.474L234.433 69.6948L208.299 29.758L231.014 28.9L247.591 54.2727L244.202 56.491L240.654 54.5352L255.272 27.9814L276.98 27.1612L253.864 69.1143L250.317 67.156L254.366 67.002ZM246.227 66.1844L266.427 29.5258L269.972 31.4842L270.126 35.5346L257.866 35.999L257.715 31.946L261.263 33.9018L244.499 64.3522L225.486 35.2545L228.878 33.0362L229.029 37.0892L215.768 37.5889L215.614 33.5384L219.003 31.3176L241.826 66.1945L242.598 86.6108L238.548 86.7648L238.397 82.7143L250.886 82.2424L251.04 86.2928L246.993 86.4468L246.269 67.3074L246.227 66.1844Z" fill="#714D00"/>
<path d="M337.953 110.98L352.661 82.0793L356.272 83.9191L358.423 87.3538L330.154 105.103L321.066 100.441L318.68 67.7904L322.72 67.4952L326.323 69.3425L310.016 101.199L292.368 92.1462L320.693 36.8227L335.537 44.4365L338.379 85.8421L334.337 86.1197L332.179 82.6901L367.153 60.651L381.935 68.2295L353.768 123.634L336.117 114.584L337.953 110.98ZM345.172 114.66L341.561 112.82L343.41 109.211L353.847 114.564L352.001 118.173L348.39 116.333L372.882 68.1564L376.493 69.9936L374.645 73.6024L365.514 68.9185L367.36 65.3122L369.518 68.7418L330.761 93.1657L327.612 47.2757L331.652 46.9981L329.806 50.6069L320.604 45.8876L322.45 42.2814L326.056 44.1287L301.425 92.237L297.819 90.3872L299.668 86.7784L310.105 92.1336L308.259 95.7399L304.653 93.8926L325.706 52.7722L328.979 97.5771L324.939 97.8749L326.785 94.266L331.798 96.8377L329.952 100.444L327.799 97.0093L366.533 72.6914L345.172 114.66Z" fill="#714D00"/>
<path d="M428.634 129.559C428.599 133.877 427.626 138.058 425.717 142.106C423.808 146.152 421.052 149.69 417.448 152.718C412.814 156.615 407.672 158.999 402.024 159.878C396.393 160.751 390.873 160.115 385.462 157.972C380.096 155.847 375.391 152.375 371.346 147.555C367.304 142.737 364.692 137.493 363.509 131.822C362.311 126.089 362.642 120.526 364.495 115.141C366.351 109.75 369.594 105.109 374.223 101.215C378.858 97.3189 384 94.9341 389.648 94.0584C395.291 93.1826 400.856 93.8615 406.346 96.0949C411.76 98.3006 416.536 101.867 420.674 106.793C422.232 108.653 423.992 111.085 425.949 114.089C427.341 116.193 428.332 117.602 428.927 118.311C429.613 119.128 430.188 119.585 430.649 119.678C430.75 119.701 430.929 119.603 431.189 119.383C431.766 118.899 432.182 118.187 432.442 117.251L433.824 112.219L447.622 120.092L446.843 123.095C445.912 126.682 444.034 129.665 441.207 132.039C438.327 134.462 435.213 135.729 431.864 135.842C428.566 135.953 425.381 134.967 422.31 132.88L424.585 129.523L428.634 129.559ZM420.535 129.49L420.598 121.917L426.859 126.169C428.475 127.267 430.051 127.789 431.59 127.739C433.075 127.689 434.542 127.053 435.995 125.831C437.503 124.564 438.504 122.974 439.001 121.059L442.922 122.076L440.914 125.599L434.341 121.846L436.348 118.326L440.251 119.401C439.548 121.96 438.264 124.024 436.401 125.591C435.337 126.487 434.202 127.111 432.999 127.464C431.693 127.848 430.364 127.898 429.015 127.62C426.715 127.146 424.617 125.781 422.724 123.525C421.929 122.578 420.742 120.91 419.163 118.518C417.385 115.787 415.82 113.619 414.468 112.009C411.195 108.108 407.468 105.306 403.292 103.605C399.19 101.935 395.054 101.425 390.891 102.071C386.733 102.714 382.913 104.501 379.433 107.424C375.951 110.354 373.525 113.806 372.156 117.781C370.786 121.76 370.547 125.889 371.44 130.164C372.345 134.505 374.38 138.563 377.549 142.338C380.716 146.114 384.348 148.812 388.443 150.432C392.49 152.034 396.602 152.514 400.781 151.865C404.939 151.219 408.759 149.435 412.239 146.51C414.937 144.241 416.987 141.619 418.392 138.644C419.794 135.671 420.507 132.62 420.535 129.49ZM385.704 135.484C387.295 137.382 389.144 138.719 391.249 139.497C393.319 140.264 395.463 140.436 397.674 140.012C399.936 139.577 402.077 138.512 404.099 136.812C406.122 135.113 407.539 133.185 408.356 131.032C409.155 128.923 409.357 126.783 408.961 124.607C408.557 122.396 407.559 120.345 405.968 118.449C404.377 116.554 402.528 115.217 400.423 114.437C398.352 113.67 396.209 113.501 393.998 113.925C391.736 114.356 389.595 115.424 387.573 117.122C385.55 118.82 384.133 120.748 383.316 122.901C382.517 125.011 382.315 127.154 382.711 129.326C383.114 131.537 384.113 133.589 385.704 135.484ZM379.501 140.7C376.99 137.707 375.403 134.401 374.743 130.783C374.075 127.128 374.407 123.542 375.741 120.027C377.055 116.557 379.264 113.518 382.363 110.914C385.46 108.309 388.831 106.656 392.475 105.96C396.164 105.253 399.749 105.543 403.232 106.833C406.681 108.108 409.659 110.243 412.171 113.233C414.682 116.226 416.268 119.532 416.929 123.151C417.597 126.805 417.264 130.391 415.93 133.907C414.617 137.379 412.408 140.415 409.309 143.02C406.21 145.627 402.841 147.277 399.197 147.974C395.508 148.68 391.922 148.39 388.44 147.103C384.991 145.826 382.013 143.694 379.501 140.7ZM433.675 99.5952L449.473 118.417L419.229 112.277L406.25 96.8142L432.545 98.2501L433.675 99.5952ZM427.472 104.809L430.573 102.202L430.351 106.25L415.146 105.42L415.366 101.372L418.467 98.765L424.522 105.978L421.42 108.584L422.224 104.612L439.717 108.163L438.91 112.135L435.808 114.742L427.472 104.809Z" fill="#714D00"/>
<path d="M447.084 147.896L455.635 166.654L399.126 192.456L390.575 173.697L447.084 147.896ZM443.077 158.639L401.307 177.708L403.133 181.713L444.903 162.641L443.077 158.639Z" fill="#714D00"/>
<path d="M76.3219 118.702L123.032 145.836L117.888 154.71L75.9991 161.544L104.362 178.018L98.169 188.708L51.459 161.574L56.6434 152.62L98.4816 145.857L70.1289 129.382L76.3219 118.702Z" fill="#FADE3F"/>
<path d="M139.886 93.7994L148.691 86.511L162.661 103.409C161.806 106.99 160.271 110.471 158.052 113.847C155.838 117.219 153.225 120.151 150.214 122.64C145.89 126.221 141.24 128.515 136.265 129.524C131.295 130.529 126.476 130.208 121.811 128.565C117.139 126.917 113.102 124.03 109.697 119.904C106.283 115.78 104.205 111.271 103.464 106.377C102.725 101.479 103.338 96.6637 105.3 91.9319C107.257 87.195 110.419 83.0183 114.781 79.4044C118.42 76.3912 122.235 74.2713 126.229 73.0448C130.223 71.8133 134.192 71.5281 138.141 72.1868L136.678 83.0183C131.123 82.3521 126.244 83.7552 122.043 87.2278C119.38 89.4284 117.482 91.9369 116.344 94.7482C115.202 97.5621 114.892 100.459 115.416 103.44C115.941 106.415 117.287 109.211 119.451 111.828C121.584 114.407 124.058 116.23 126.875 117.3C129.699 118.37 132.596 118.627 135.569 118.067C138.547 117.509 141.341 116.149 143.951 113.989C146.727 111.687 148.734 109.027 149.972 106.004L139.886 93.7994Z" fill="#FADE3F"/>
<path d="M203.664 80.9277L180.072 89.4375L179.497 101.955L167.444 106.295L171.781 47.2723L183.391 43.0831L224.422 85.7429L212.087 90.1946L203.664 80.9277ZM196.745 73.3265L181.666 56.7512L180.627 79.141L196.745 73.3265ZM156.944 36.1178L169.129 31.7266L182.695 38.6515L173.839 41.8515L156.944 36.1178Z" fill="#FADE3F"/>
<path d="M250.314 67.1535L251.041 86.2928L238.554 86.7673L237.827 67.4765L215.617 33.5384L228.881 33.0337L244.202 56.4835L257.718 31.9435L269.973 31.4791L250.314 67.1535Z" fill="#FADE3F"/>
<path d="M341.564 112.822L356.27 83.9216L329.945 100.436L324.942 97.8723L322.723 67.4977L308.259 95.7424L297.82 90.3922L322.451 42.2813L331.65 46.9955L334.332 86.1222L367.365 65.3071L376.493 69.991L352.004 118.173L341.564 112.822Z" fill="#FADE3F"/>
<path d="M424.587 129.533C424.559 133.248 423.714 136.862 422.055 140.375C420.393 143.888 417.99 146.967 414.843 149.611C410.789 153.016 406.305 155.098 401.398 155.86C396.496 156.627 391.68 156.072 386.955 154.194C382.227 152.322 378.058 149.241 374.447 144.948C370.842 140.647 368.517 135.996 367.468 130.997C366.424 125.995 366.711 121.15 368.325 116.461C369.939 111.772 372.773 107.724 376.828 104.317C380.883 100.905 385.361 98.8205 390.263 98.0583C395.17 97.2987 400.021 97.8968 404.818 99.8552C409.619 101.808 413.87 104.991 417.577 109.405C419.029 111.136 420.688 113.432 422.559 116.299C424.045 118.548 425.134 120.085 425.827 120.913C427.119 122.447 428.452 123.355 429.832 123.638C431.216 123.926 432.54 123.542 433.806 122.487C435.021 121.458 435.868 120.067 436.348 118.318L442.924 122.073C442.21 124.832 440.77 127.121 438.607 128.938C436.441 130.76 434.149 131.714 431.728 131.795C429.312 131.875 426.932 131.121 424.587 129.533ZM382.597 138.094C384.655 140.536 387.071 142.273 389.849 143.302C392.626 144.332 395.488 144.564 398.433 143.999C401.383 143.434 404.142 142.073 406.704 139.921C409.266 137.765 411.076 135.282 412.14 132.471C413.209 129.657 413.477 126.793 412.947 123.88C412.415 120.966 411.122 118.288 409.064 115.845C407.011 113.402 404.598 111.666 401.822 110.636C399.043 109.607 396.179 109.374 393.228 109.94C390.283 110.505 387.53 111.865 384.968 114.018C382.406 116.173 380.59 118.656 379.521 121.468C378.457 124.279 378.192 127.143 378.724 130.058C379.254 132.971 380.545 135.651 382.597 138.094ZM430.578 102.207L438.909 112.14L421.42 108.577L415.368 101.369L430.578 102.207Z" fill="#FADE3F"/>
<path d="M445.087 153.266L450.271 164.643L401.13 187.083L395.946 175.706L445.087 153.266Z" fill="#FADE3F"/>
</g>
<path d="M392.998 262.781C393.075 243.532 389.444 224.454 382.313 206.646C375.183 188.839 364.695 172.652 351.451 159.014C338.209 145.376 322.469 134.555 305.14 127.175C287.809 119.793 269.23 115.995 250.464 116C231.701 116.005 213.122 119.812 195.796 127.202C178.471 134.593 162.735 145.422 149.499 159.065C136.262 172.711 125.783 188.904 118.663 206.714C111.54 224.524 107.917 243.602 108.001 262.854L250.501 262.179L392.998 262.781Z" fill="url(#paint0_linear_54823_94)" stroke="black" stroke-width="6.68246"/>
<path d="M392.73 263.155L108.389 262.813C107.47 270.724 108.131 274.788 110.903 280.715C113.679 284.679 117.389 287.144 122.018 288.13C122.018 288.13 146.674 284.896 164.929 287.713C170.503 288.58 166.498 299.972 164.929 304.86C164.207 307.108 156.395 307.26 152.561 307.414C147.764 307.612 120.34 307.91 116.896 311.234C115.087 313.006 121.696 332.951 128.937 338.215C137.695 344.573 188.242 335.858 195.072 338.036C196.705 338.559 199.567 340.862 201.36 342.796C203.019 344.584 204.641 346.608 205.32 348.954C205.873 350.853 205.586 352.929 205.32 354.898C205.131 356.361 205.239 358.16 204.178 359.162C191.907 370.552 144.944 356.326 155.05 368.195C164.652 379.468 182.944 392.529 197.927 396.739C230.369 405.861 266.658 406.429 298.932 396.712C311.942 392.791 331.616 380.126 345.171 368.357C357.684 357.491 315.02 366.325 302.455 358.829C300.964 357.924 299.529 356.543 299.021 354.871C298.442 352.975 299.2 350.861 299.743 348.954C300.34 346.86 301.017 344.603 302.515 343.021C303.969 341.485 306.038 340.572 308.071 340.057C314.359 338.478 327.506 340.057 327.506 340.057C327.506 340.057 357.139 348.775 368.974 341.55C378.061 335.985 378.132 322.87 382.814 312.481C385.66 306.149 346.946 311.868 346.946 311.868C346.946 311.868 338.054 312.5 334.452 310.386C332.401 309.175 332.962 290.36 335.871 289.423C341.614 287.562 389.191 291.663 392.311 279.613C393.559 274.826 392.73 263.155 392.73 263.155Z" fill="url(#paint1_linear_54823_94)" stroke="black" stroke-width="6.68246"/>
<path d="M225.206 196.049C232.143 199.621 248.367 208.497 249.559 211.684C250.527 209.372 260.638 201.26 272.519 195.629C288.269 188.168 312.037 196.943 320.632 198.964C326.14 200.259 331.258 190.757 336.029 193.331C337.224 193.977 335.024 208.231 322.5 227.203C319.122 232.32 298.172 240.198 287.919 235.566C287.919 235.566 278.345 233.472 271.661 235.671C271.661 235.671 264.177 238.155 259.609 246.087C256.709 251.123 258.382 262.817 258.382 262.817C258.382 262.817 245.138 262.936 241.567 262.817C241.567 262.817 243.201 251.405 240.761 246.335C238.046 240.68 233.522 237.154 227.564 235.671C222.248 233.835 216.717 233.752 212.483 235.474C201.467 239.953 181.62 232.815 177.243 228.312C167.617 218.432 162.97 196.302 164.288 193.331C166.543 190.531 171.015 200.194 177.025 198.749C184.314 196.999 205.362 185.848 225.206 196.049Z" fill="#1CA7EC" stroke="black" stroke-width="6.68246"/>
</g>
<defs>
<linearGradient id="paint0_linear_54823_94" x1="250.5" y1="116" x2="250.5" y2="262.854" gradientUnits="userSpaceOnUse">
<stop offset="0.688998" stop-color="#FBBF24"/>
<stop offset="1" stop-color="#E93C3C"/>
</linearGradient>
<linearGradient id="paint1_linear_54823_94" x1="250.5" y1="262.813" x2="250.5" y2="403.791" gradientUnits="userSpaceOnUse">
<stop stop-color="#1CA7EC"/>
<stop offset="1" stop-color="white"/>
</linearGradient>
<clipPath id="clip0_54823_94">
<rect width="502" height="502" fill="white"/>
</clipPath>
</defs>
</svg>
