<svg width="500" height="505" viewBox="0 0 500 505" fill="none" xmlns="http://www.w3.org/2000/svg">
<path d="M496.396 257.276C496.529 223.975 490.247 190.969 477.911 160.162C465.575 129.355 447.431 101.35 424.518 77.7561C401.61 54.1619 374.378 35.4422 344.4 22.675C314.417 9.903 282.274 3.33188 249.809 3.34126C217.348 3.35063 185.205 9.93581 155.231 22.7218C125.257 35.5078 98.0349 54.2416 75.1354 77.8451C52.2359 101.453 34.1058 129.467 21.7882 160.279C9.46613 191.091 3.19802 224.097 3.34379 257.402L249.872 256.235L496.396 257.276Z" fill="url(#paint0_linear_54844_117)" stroke="black" stroke-width="6.68246"/>
<path d="M495.932 257.923L4.01374 257.332C2.42394 271.018 3.56732 278.049 8.36406 288.304C13.1653 295.161 19.5838 299.426 27.592 301.132C27.592 301.132 70.2479 295.536 101.83 300.41C111.473 301.91 104.545 321.619 101.83 330.074C100.582 333.964 87.0661 334.226 80.4336 334.494C72.1338 334.836 24.6903 335.351 18.7319 341.102C15.6024 344.167 27.0363 378.673 39.5633 387.78C54.7143 398.78 142.163 383.702 153.979 387.47C156.803 388.375 161.755 392.359 164.857 395.705C167.727 398.799 170.533 402.3 171.708 406.359C172.665 409.644 172.168 413.234 171.708 416.642C171.38 419.173 171.567 422.285 169.731 424.019C148.503 443.723 67.2551 419.112 84.7383 439.645C101.352 459.148 132.997 481.744 158.917 489.027C215.043 504.808 277.824 505.792 333.658 488.98C356.166 482.198 390.203 460.287 413.654 439.927C435.301 421.127 361.491 436.411 339.753 423.443C337.175 421.877 334.693 419.487 333.813 416.595C332.811 413.314 334.123 409.658 335.062 406.359C336.096 402.736 337.266 398.831 339.858 396.094C342.373 393.437 345.953 391.857 349.47 390.967C360.348 388.234 383.093 390.967 383.093 390.967C383.093 390.967 434.358 406.049 454.834 393.549C470.555 383.922 470.678 361.233 478.777 343.258C483.701 332.305 416.724 342.199 416.724 342.199C416.724 342.199 401.341 343.291 395.11 339.635C391.561 337.54 392.531 304.989 397.565 303.368C407.5 300.148 489.81 307.244 495.208 286.396C497.367 278.114 495.932 257.923 495.932 257.923Z" fill="url(#paint1_linear_54844_117)" stroke="black" stroke-width="6.68246"/>
<path d="M206.112 141.828C218.113 148.007 246.18 163.364 248.242 168.877C249.918 164.877 267.409 150.843 287.964 141.102C315.212 128.194 356.332 143.374 371.201 146.871C380.73 149.111 389.585 132.674 397.839 137.125C399.906 138.243 396.1 162.903 374.433 195.726C368.588 204.578 332.344 218.207 314.607 210.193C314.607 210.193 298.044 206.571 286.48 210.375C286.48 210.375 273.532 214.673 265.629 228.395C260.612 237.107 263.507 257.339 263.507 257.339C263.507 257.339 240.594 257.544 234.416 257.339C234.416 257.339 237.243 237.596 233.023 228.824C228.324 219.041 220.498 212.941 210.191 210.375C200.994 207.199 191.425 207.055 184.099 210.035C165.042 217.783 130.706 205.435 123.135 197.645C106.481 180.551 98.4408 142.266 100.722 137.125C104.623 132.283 112.358 148.999 122.757 146.499C135.368 143.472 171.78 124.181 206.112 141.828Z" fill="#1CA7EC" stroke="black" stroke-width="6.68246"/>
<defs>
<linearGradient id="paint0_linear_54844_117" x1="249.87" y1="3.34125" x2="249.87" y2="257.402" gradientUnits="userSpaceOnUse">
<stop offset="0.688998" stop-color="#FBBF24"/>
<stop offset="1" stop-color="#E93C3C"/>
</linearGradient>
<linearGradient id="paint1_linear_54844_117" x1="249.87" y1="257.332" x2="249.87" y2="501.229" gradientUnits="userSpaceOnUse">
<stop stop-color="#1CA7EC"/>
<stop offset="1" stop-color="white"/>
</linearGradient>
</defs>
</svg>
