<svg width="500" height="500" viewBox="0 0 500 500" fill="none" xmlns="http://www.w3.org/2000/svg">
<g clip-path="url(#clip0_54824_94)">
<mask id="mask0_54824_94" style="mask-type:luminance" maskUnits="userSpaceOnUse" x="2" y="2" width="496" height="256">
<path d="M2.65479 2.0575H497.106V257.628H2.65479V2.0575Z" fill="white"/>
</mask>
<g mask="url(#mask0_54824_94)">
<mask id="mask1_54824_94" style="mask-type:luminance" maskUnits="userSpaceOnUse" x="2" y="3" width="494" height="255">
<path d="M495.977 256.944C496.109 223.643 489.827 190.637 477.492 159.83C465.156 129.023 447.012 101.018 424.099 77.4238C401.19 53.8297 373.958 35.11 343.98 22.3427C313.997 9.57072 281.855 2.99961 249.389 3.00898C216.928 3.01836 184.786 9.60353 154.812 22.3896C124.838 35.1756 97.6151 53.9093 74.7156 77.5129C51.816 101.121 33.6859 129.135 21.3683 159.947C9.04621 190.759 2.7781 223.765 2.92387 257.07L249.453 255.903L495.977 256.944Z" fill="white"/>
</mask>
<g mask="url(#mask1_54824_94)">
<path d="M2.77783 2.99988V257.071H496.109V2.99988H2.77783Z" fill="url(#paint0_linear_54824_94)"/>
</g>
</g>
<mask id="mask2_54824_94" style="mask-type:luminance" maskUnits="userSpaceOnUse" x="0" y="0" width="500" height="292">
<path d="M0 0H499.408V291.224H0V0Z" fill="white"/>
</mask>
<g mask="url(#mask2_54824_94)">
<path d="M495.977 256.944C496.109 223.643 489.827 190.637 477.491 159.83C465.155 129.023 447.012 101.018 424.098 77.4238C401.19 53.8297 373.958 35.11 343.98 22.3427C313.997 9.57078 281.854 2.99967 249.389 3.00904C216.928 3.01842 184.785 9.60359 154.811 22.3896C124.838 35.1756 97.615 53.9094 74.7155 77.5129C51.816 101.121 33.6859 129.135 21.3683 159.947C9.0462 190.759 2.7781 223.765 2.92387 257.07L249.452 255.903L495.977 256.944Z" stroke="black" stroke-width="6.68246"/>
</g>
<path d="M205.433 138.496C217.434 144.675 245.501 160.032 247.563 165.545C249.239 161.545 266.73 147.511 287.286 137.77C314.533 124.862 355.653 140.042 370.522 143.539C380.051 145.779 388.906 129.342 397.16 133.793C399.227 134.911 395.421 159.571 373.755 192.394C367.909 201.246 331.665 214.875 313.928 206.861C313.928 206.861 297.365 203.239 285.801 207.043C285.801 207.043 272.854 211.341 264.95 225.063C259.933 233.775 262.829 254.007 262.829 254.007C262.829 254.007 239.915 254.212 233.737 254.007C233.737 254.007 236.564 234.264 232.344 225.492C227.645 215.708 219.819 209.609 209.512 207.043C200.316 203.867 190.746 203.723 183.421 206.703C164.363 214.451 130.027 202.102 122.456 194.312C105.802 177.219 97.7621 138.934 100.043 133.793C103.945 128.95 111.68 145.667 122.078 143.166C134.689 140.14 171.101 120.848 205.433 138.496Z" fill="#1CA7EC" stroke="black" stroke-width="6.68246"/>
<mask id="mask3_54824_94" style="mask-type:luminance" maskUnits="userSpaceOnUse" x="2" y="255" width="496" height="245">
<path d="M496.606 255.728V499.5H3.15479V255.728H496.606Z" fill="white" stroke="white"/>
</mask>
<g mask="url(#mask3_54824_94)">
<mask id="mask4_54824_94" style="mask-type:luminance" maskUnits="userSpaceOnUse" x="2" y="255" width="494" height="245">
<path d="M495.044 256.712C495.052 256.829 495.061 256.968 495.07 257.127C495.105 257.693 495.153 258.513 495.203 259.521C495.304 261.54 495.416 264.316 495.46 267.351C495.549 273.443 495.364 280.494 494.304 284.559V284.56C493.671 287.004 491.902 289.083 489.178 290.85C486.453 292.617 482.811 294.046 478.521 295.197C469.942 297.5 458.879 298.666 447.641 299.283C436.407 299.9 425.03 299.966 415.827 300.079C411.229 300.136 407.169 300.204 403.947 300.359C400.749 300.514 398.307 300.755 396.99 301.182C396.15 301.453 395.506 302.314 394.997 303.38C394.473 304.478 394.026 305.932 393.65 307.604C392.899 310.955 392.414 315.272 392.199 319.589C391.984 323.907 392.038 328.249 392.37 331.651C392.536 333.35 392.774 334.832 393.088 335.965C393.245 336.531 393.425 337.027 393.635 337.424C393.84 337.812 394.098 338.156 394.436 338.355L394.437 338.356C396.07 339.315 398.268 339.945 400.608 340.36C402.957 340.777 405.488 340.985 407.813 341.077C410.14 341.17 412.271 341.148 413.818 341.102C414.592 341.08 415.221 341.051 415.657 341.028C415.875 341.017 416.045 341.006 416.161 340.999C416.219 340.995 416.263 340.993 416.293 340.991C416.308 340.99 416.319 340.989 416.327 340.988C416.331 340.988 416.335 340.988 416.337 340.988L416.339 340.987H416.34L416.358 340.986L416.378 340.983C416.378 340.983 416.38 340.983 416.381 340.983C416.383 340.983 416.386 340.982 416.39 340.981C416.398 340.98 416.41 340.979 416.426 340.976C416.458 340.972 416.506 340.965 416.568 340.956C416.695 340.938 416.882 340.91 417.126 340.875C417.614 340.805 418.33 340.704 419.24 340.58C421.06 340.331 423.655 339.988 426.753 339.61C432.95 338.854 441.159 337.961 449.211 337.41C457.271 336.858 465.144 336.651 470.684 337.259C473.467 337.564 475.592 338.069 476.856 338.792C477.483 339.15 477.848 339.534 478.01 339.923C478.165 340.296 478.165 340.753 477.9 341.343C475.861 345.869 474.327 350.685 472.93 355.496C471.529 360.319 470.269 365.117 468.769 369.667C465.769 378.764 461.855 386.695 454.153 391.412C449.141 394.472 442.197 395.867 434.544 396.21C426.901 396.552 418.607 395.842 410.936 394.74C403.267 393.639 396.234 392.148 391.118 390.932C388.561 390.324 386.483 389.784 385.045 389.397C384.326 389.204 383.767 389.048 383.389 388.941C383.2 388.888 383.056 388.847 382.959 388.819C382.911 388.805 382.874 388.794 382.85 388.787L382.815 388.777H382.814H382.813L382.773 388.766L382.732 388.76H382.731H382.728C382.725 388.759 382.72 388.758 382.715 388.758C382.704 388.756 382.687 388.754 382.665 388.752C382.621 388.747 382.556 388.739 382.472 388.729C382.301 388.71 382.05 388.682 381.728 388.647C381.082 388.578 380.149 388.481 378.995 388.374C376.688 388.16 373.497 387.904 369.965 387.732C362.922 387.391 354.447 387.385 348.928 388.771H348.927C345.363 389.674 341.681 391.287 339.075 394.04C336.722 396.525 335.511 399.92 334.557 403.143L334.16 404.512C333.698 406.137 333.124 407.916 332.798 409.684C332.491 411.348 332.393 413.055 332.822 414.702L332.915 415.031C333.845 418.089 336.444 420.563 339.074 422.16L339.077 422.162C344.624 425.471 353.422 426.95 363.06 427.635C372.718 428.321 383.331 428.213 392.549 428.288C397.164 428.325 401.428 428.409 405.062 428.658C408.705 428.908 411.674 429.323 413.718 430.008C414.74 430.35 415.49 430.748 415.978 431.194C416.451 431.628 416.669 432.099 416.665 432.639C416.661 433.201 416.413 433.909 415.8 434.79C415.189 435.667 414.242 436.678 412.906 437.839C389.478 458.179 355.504 480.039 333.094 486.792C277.359 503.574 214.675 502.594 158.632 486.836C132.825 479.584 101.26 457.053 84.6982 437.611C83.624 436.35 82.9575 435.293 82.626 434.416C82.297 433.546 82.3108 432.889 82.5371 432.379C82.767 431.861 83.2572 431.399 84.0684 431.007C84.8796 430.615 85.9686 430.314 87.3174 430.096C92.7399 429.219 101.849 429.747 112.271 430.31C122.655 430.872 134.288 431.461 144.654 430.674C154.994 429.889 164.209 427.727 169.651 422.676L169.842 422.485C170.744 421.527 171.141 420.268 171.357 419.003C171.473 418.325 171.539 417.626 171.597 416.95C171.655 416.268 171.703 415.613 171.783 414.995C172.24 411.613 172.759 407.914 171.769 404.51C170.558 400.331 167.681 396.756 164.804 393.655C163.233 391.96 161.198 390.109 159.199 388.566C157.338 387.13 155.462 385.924 153.998 385.383L153.711 385.284L153.403 385.194C151.801 384.765 149.189 384.614 145.867 384.643C142.3 384.673 137.843 384.91 132.792 385.267C122.702 385.978 110.158 387.168 97.5635 388.128C84.9492 389.089 72.2481 389.824 61.7598 389.632C56.5152 389.536 51.837 389.208 48.0068 388.566C44.4021 387.962 41.6035 387.087 39.7871 385.905L39.4365 385.665C36.3839 383.446 33.3619 379.647 30.5898 375.104C27.8233 370.571 25.3291 365.334 23.3203 360.28C21.3113 355.225 19.794 350.367 18.9736 346.592C18.563 344.702 18.3303 343.101 18.2939 341.89C18.2758 341.283 18.307 340.792 18.3818 340.42C18.4581 340.041 18.5686 339.842 18.6592 339.752C19.311 339.123 20.6011 338.513 22.4766 337.95C24.3302 337.394 26.6808 336.905 29.3779 336.476C34.7705 335.617 41.5012 335.003 48.3174 334.559C61.9544 333.668 75.8629 333.455 80.0342 333.283L80.0332 333.282C83.3369 333.149 88.4038 333.017 92.7969 332.428C94.9917 332.133 97.0483 331.721 98.6465 331.126C100.207 330.545 101.497 329.729 101.886 328.517C103.237 324.308 105.666 317.218 106.539 310.993C106.975 307.886 107.034 304.93 106.338 302.634C105.988 301.479 105.441 300.47 104.636 299.697C103.827 298.921 102.784 298.408 101.486 298.206H101.485C85.6431 295.761 67.0426 295.943 52.4199 296.733C45.1051 297.129 38.7785 297.677 34.2803 298.126C32.0311 298.35 30.2384 298.55 29.0078 298.694C28.3927 298.766 27.9179 298.824 27.5967 298.864C27.4361 298.884 27.3137 298.9 27.2314 298.91C27.2184 298.912 27.2063 298.913 27.1953 298.914C19.3631 297.226 13.0873 293.052 8.37598 286.339C6.00244 281.258 4.54373 276.996 3.86816 272.323C3.20485 267.735 3.29401 262.724 4.04004 256.122L495.044 256.712Z" fill="white" stroke="white"/>
</mask>
<g mask="url(#mask4_54824_94)">
<path d="M496.447 256.122V502.542H2.50391V256.122H496.447Z" fill="url(#paint1_linear_54824_94)" stroke="black"/>
</g>
</g>
<mask id="mask5_54824_94" style="mask-type:luminance" maskUnits="userSpaceOnUse" x="0" y="217" width="500" height="283">
<path d="M0.592285 217.177H500V499.787H0.592285V217.177Z" fill="white"/>
</mask>
<g mask="url(#mask5_54824_94)">
<path d="M496.105 252.958L4.1861 252.367C2.5963 266.053 3.73968 273.083 8.53642 283.338C13.3377 290.195 19.7561 294.461 27.7644 296.167C27.7644 296.167 70.4203 290.57 102.002 295.445C111.646 296.945 104.717 316.653 102.002 325.109C100.754 328.999 87.2384 329.261 80.6059 329.528C72.3061 329.871 24.8626 330.386 18.9043 336.137C15.7748 339.202 27.2086 373.708 39.7357 382.814C54.8867 393.815 142.335 378.737 154.151 382.505C156.976 383.41 161.927 387.394 165.029 390.74C167.899 393.833 170.705 397.335 171.881 401.394C172.837 404.679 172.341 408.269 171.881 411.677C171.553 414.208 171.739 417.32 169.904 419.054C148.676 438.758 67.4274 414.147 84.9107 434.68C101.524 454.183 133.17 476.779 159.089 484.062C215.215 499.843 277.996 500.827 333.831 484.015C356.339 477.233 390.376 455.322 413.827 434.962C435.473 416.162 361.664 431.446 339.926 418.477C337.348 416.912 334.865 414.522 333.986 411.63C332.984 408.349 334.295 404.693 335.234 401.394C336.268 397.771 337.439 393.866 340.031 391.129C342.545 388.472 346.126 386.892 349.642 386.002C360.52 383.269 383.265 386.002 383.265 386.002C383.265 386.002 434.53 401.084 455.007 388.584C470.727 378.957 470.85 356.268 478.949 338.293C483.873 327.34 416.897 337.234 416.897 337.234C416.897 337.234 401.514 338.326 395.282 334.67C391.733 332.575 392.704 300.024 397.737 298.402C407.672 295.182 489.982 302.278 495.38 281.431C497.539 273.149 496.105 252.958 496.105 252.958Z" stroke="black" stroke-width="6.68246"/>
</g>
</g>
<defs>
<linearGradient id="paint0_linear_54824_94" x1="249.442" y1="1.43937" x2="251.071" y2="258.624" gradientUnits="userSpaceOnUse">
<stop stop-color="#C33349"/>
<stop offset="0.0078125" stop-color="#C33349"/>
<stop offset="0.0117188" stop-color="#C33449"/>
<stop offset="0.015625" stop-color="#C33549"/>
<stop offset="0.0195312" stop-color="#C33649"/>
<stop offset="0.0234375" stop-color="#C33749"/>
<stop offset="0.0273438" stop-color="#C33848"/>
<stop offset="0.03125" stop-color="#C33948"/>
<stop offset="0.0351562" stop-color="#C33A48"/>
<stop offset="0.0390625" stop-color="#C33B48"/>
<stop offset="0.0429687" stop-color="#C33C48"/>
<stop offset="0.046875" stop-color="#C33C48"/>
<stop offset="0.0507812" stop-color="#C33D48"/>
<stop offset="0.0546875" stop-color="#C33E48"/>
<stop offset="0.0585937" stop-color="#C33F48"/>
<stop offset="0.0625" stop-color="#C34048"/>
<stop offset="0.0664062" stop-color="#C34147"/>
<stop offset="0.0703125" stop-color="#C34247"/>
<stop offset="0.0742188" stop-color="#C44347"/>
<stop offset="0.078125" stop-color="#C44447"/>
<stop offset="0.0820312" stop-color="#C44547"/>
<stop offset="0.0859375" stop-color="#C44547"/>
<stop offset="0.0898438" stop-color="#C44647"/>
<stop offset="0.09375" stop-color="#C44747"/>
<stop offset="0.0976563" stop-color="#C44847"/>
<stop offset="0.101563" stop-color="#C44947"/>
<stop offset="0.105469" stop-color="#C44A46"/>
<stop offset="0.109375" stop-color="#C44B46"/>
<stop offset="0.113281" stop-color="#C44C46"/>
<stop offset="0.117188" stop-color="#C44D46"/>
<stop offset="0.121094" stop-color="#C44E46"/>
<stop offset="0.125" stop-color="#C44E46"/>
<stop offset="0.128906" stop-color="#C44F46"/>
<stop offset="0.132812" stop-color="#C45046"/>
<stop offset="0.136719" stop-color="#C45146"/>
<stop offset="0.140625" stop-color="#C45245"/>
<stop offset="0.144531" stop-color="#C45345"/>
<stop offset="0.148437" stop-color="#C45445"/>
<stop offset="0.152344" stop-color="#C45545"/>
<stop offset="0.15625" stop-color="#C45645"/>
<stop offset="0.160156" stop-color="#C45745"/>
<stop offset="0.164062" stop-color="#C45745"/>
<stop offset="0.167969" stop-color="#C45845"/>
<stop offset="0.171875" stop-color="#C45945"/>
<stop offset="0.175781" stop-color="#C45A45"/>
<stop offset="0.179687" stop-color="#C45B44"/>
<stop offset="0.183594" stop-color="#C45C44"/>
<stop offset="0.1875" stop-color="#C45D44"/>
<stop offset="0.191406" stop-color="#C45E44"/>
<stop offset="0.195312" stop-color="#C45F44"/>
<stop offset="0.199219" stop-color="#C46044"/>
<stop offset="0.203125" stop-color="#C46144"/>
<stop offset="0.207031" stop-color="#C46144"/>
<stop offset="0.210937" stop-color="#C56244"/>
<stop offset="0.214844" stop-color="#C56344"/>
<stop offset="0.21875" stop-color="#C56443"/>
<stop offset="0.222656" stop-color="#C56543"/>
<stop offset="0.226562" stop-color="#C56643"/>
<stop offset="0.230469" stop-color="#C56743"/>
<stop offset="0.234375" stop-color="#C56843"/>
<stop offset="0.238281" stop-color="#C56943"/>
<stop offset="0.242187" stop-color="#C56A43"/>
<stop offset="0.246094" stop-color="#C56A43"/>
<stop offset="0.25" stop-color="#C56B43"/>
<stop offset="0.253906" stop-color="#C56C43"/>
<stop offset="0.257812" stop-color="#C56D42"/>
<stop offset="0.261719" stop-color="#C56E42"/>
<stop offset="0.265625" stop-color="#C56F42"/>
<stop offset="0.269531" stop-color="#C57042"/>
<stop offset="0.273438" stop-color="#C57142"/>
<stop offset="0.277344" stop-color="#C57242"/>
<stop offset="0.28125" stop-color="#C57342"/>
<stop offset="0.285156" stop-color="#C57342"/>
<stop offset="0.289062" stop-color="#C57442"/>
<stop offset="0.292969" stop-color="#C57542"/>
<stop offset="0.296875" stop-color="#C57641"/>
<stop offset="0.300781" stop-color="#C57741"/>
<stop offset="0.304688" stop-color="#C57841"/>
<stop offset="0.308594" stop-color="#C57941"/>
<stop offset="0.3125" stop-color="#C57A41"/>
<stop offset="0.316406" stop-color="#C57B41"/>
<stop offset="0.320312" stop-color="#C57C41"/>
<stop offset="0.324219" stop-color="#C57C41"/>
<stop offset="0.328125" stop-color="#C57D41"/>
<stop offset="0.332031" stop-color="#C57E41"/>
<stop offset="0.335938" stop-color="#C57F40"/>
<stop offset="0.339844" stop-color="#C58040"/>
<stop offset="0.34375" stop-color="#C68140"/>
<stop offset="0.347656" stop-color="#C68240"/>
<stop offset="0.351562" stop-color="#C68340"/>
<stop offset="0.355469" stop-color="#C68440"/>
<stop offset="0.359375" stop-color="#C68540"/>
<stop offset="0.363281" stop-color="#C68640"/>
<stop offset="0.367188" stop-color="#C68640"/>
<stop offset="0.371094" stop-color="#C6873F"/>
<stop offset="0.375" stop-color="#C6883F"/>
<stop offset="0.378906" stop-color="#C6893F"/>
<stop offset="0.382812" stop-color="#C68A3F"/>
<stop offset="0.386719" stop-color="#C68B3F"/>
<stop offset="0.390625" stop-color="#C68C3F"/>
<stop offset="0.394531" stop-color="#C68D3F"/>
<stop offset="0.398438" stop-color="#C68E3F"/>
<stop offset="0.402344" stop-color="#C68F3F"/>
<stop offset="0.40625" stop-color="#C68F3F"/>
<stop offset="0.410156" stop-color="#C6903E"/>
<stop offset="0.414062" stop-color="#C6913E"/>
<stop offset="0.417969" stop-color="#C6923E"/>
<stop offset="0.421875" stop-color="#C6933E"/>
<stop offset="0.425781" stop-color="#C6943E"/>
<stop offset="0.429687" stop-color="#C6953E"/>
<stop offset="0.433594" stop-color="#C6963E"/>
<stop offset="0.4375" stop-color="#C6973E"/>
<stop offset="0.441406" stop-color="#C6983E"/>
<stop offset="0.445312" stop-color="#C6983E"/>
<stop offset="0.449219" stop-color="#C6993D"/>
<stop offset="0.453125" stop-color="#C69A3D"/>
<stop offset="0.457031" stop-color="#C69B3D"/>
<stop offset="0.460937" stop-color="#C69C3D"/>
<stop offset="0.464844" stop-color="#C69D3D"/>
<stop offset="0.46875" stop-color="#C69E3D"/>
<stop offset="0.472656" stop-color="#C69F3D"/>
<stop offset="0.476562" stop-color="#C7A03D"/>
<stop offset="0.480469" stop-color="#C7A13D"/>
<stop offset="0.484375" stop-color="#C7A13D"/>
<stop offset="0.488281" stop-color="#C7A23C"/>
<stop offset="0.492188" stop-color="#C7A33C"/>
<stop offset="0.496094" stop-color="#C7A43C"/>
<stop offset="0.5" stop-color="#C7A53C"/>
<stop offset="0.503906" stop-color="#C7A63C"/>
<stop offset="0.507812" stop-color="#C7A73C"/>
<stop offset="0.511719" stop-color="#C7A83C"/>
<stop offset="0.515625" stop-color="#C7A93C"/>
<stop offset="0.519531" stop-color="#C7AA3C"/>
<stop offset="0.523438" stop-color="#C7AB3C"/>
<stop offset="0.527344" stop-color="#C7AB3B"/>
<stop offset="0.53125" stop-color="#C7AC3B"/>
<stop offset="0.535156" stop-color="#C7AD3B"/>
<stop offset="0.539062" stop-color="#C7AE3B"/>
<stop offset="0.546875" stop-color="#C7AF3B"/>
<stop offset="0.5625" stop-color="#C7AF3B"/>
<stop offset="0.625" stop-color="#C7AF3B"/>
<stop offset="0.75" stop-color="#C7AF3B"/>
<stop offset="0.987851" stop-color="#C7AF3B"/>
<stop offset="1" stop-color="#C7AF3B"/>
</linearGradient>
<linearGradient id="paint1_linear_54824_94" x1="246.256" y1="247.7" x2="254.79" y2="510.894" gradientUnits="userSpaceOnUse">
<stop stop-color="#1CA7EC"/>
<stop offset="0.03125" stop-color="#1CA7EC"/>
<stop offset="0.0390625" stop-color="#1CA7EC"/>
<stop offset="0.0429688" stop-color="#1DA7EC"/>
<stop offset="0.046875" stop-color="#1EA8EC"/>
<stop offset="0.0507812" stop-color="#20A8EC"/>
<stop offset="0.0546875" stop-color="#21A9EC"/>
<stop offset="0.0585938" stop-color="#23AAEC"/>
<stop offset="0.0625" stop-color="#24AAED"/>
<stop offset="0.0664062" stop-color="#26ABED"/>
<stop offset="0.0703125" stop-color="#27ABED"/>
<stop offset="0.0742188" stop-color="#28ACED"/>
<stop offset="0.078125" stop-color="#2AACED"/>
<stop offset="0.0820313" stop-color="#2BADED"/>
<stop offset="0.0859375" stop-color="#2DADED"/>
<stop offset="0.0898438" stop-color="#2EAEED"/>
<stop offset="0.09375" stop-color="#30AEED"/>
<stop offset="0.0976563" stop-color="#31AFED"/>
<stop offset="0.101562" stop-color="#33AFEE"/>
<stop offset="0.105469" stop-color="#34B0EE"/>
<stop offset="0.109375" stop-color="#35B1EE"/>
<stop offset="0.113281" stop-color="#37B1EE"/>
<stop offset="0.117187" stop-color="#38B2EE"/>
<stop offset="0.121094" stop-color="#3AB2EE"/>
<stop offset="0.125" stop-color="#3BB3EE"/>
<stop offset="0.128906" stop-color="#3DB3EE"/>
<stop offset="0.132812" stop-color="#3EB4EE"/>
<stop offset="0.136719" stop-color="#3FB4EE"/>
<stop offset="0.140625" stop-color="#41B5EE"/>
<stop offset="0.144531" stop-color="#42B5EF"/>
<stop offset="0.148438" stop-color="#44B6EF"/>
<stop offset="0.152344" stop-color="#45B7EF"/>
<stop offset="0.15625" stop-color="#47B7EF"/>
<stop offset="0.160156" stop-color="#48B8EF"/>
<stop offset="0.164063" stop-color="#4AB8EF"/>
<stop offset="0.167969" stop-color="#4BB9EF"/>
<stop offset="0.171875" stop-color="#4CB9EF"/>
<stop offset="0.175781" stop-color="#4EBAEF"/>
<stop offset="0.179688" stop-color="#4FBAEF"/>
<stop offset="0.183594" stop-color="#51BBF0"/>
<stop offset="0.1875" stop-color="#52BBF0"/>
<stop offset="0.191406" stop-color="#54BCF0"/>
<stop offset="0.195312" stop-color="#55BCF0"/>
<stop offset="0.199219" stop-color="#57BDF0"/>
<stop offset="0.203125" stop-color="#58BEF0"/>
<stop offset="0.207031" stop-color="#59BEF0"/>
<stop offset="0.210938" stop-color="#5BBFF0"/>
<stop offset="0.214844" stop-color="#5CBFF0"/>
<stop offset="0.21875" stop-color="#5EC0F0"/>
<stop offset="0.222656" stop-color="#5FC0F1"/>
<stop offset="0.226562" stop-color="#61C1F1"/>
<stop offset="0.230469" stop-color="#62C1F1"/>
<stop offset="0.234375" stop-color="#63C2F1"/>
<stop offset="0.238281" stop-color="#65C2F1"/>
<stop offset="0.242188" stop-color="#66C3F1"/>
<stop offset="0.246094" stop-color="#68C4F1"/>
<stop offset="0.25" stop-color="#69C4F1"/>
<stop offset="0.253906" stop-color="#6BC5F1"/>
<stop offset="0.257813" stop-color="#6CC5F1"/>
<stop offset="0.261719" stop-color="#6EC6F1"/>
<stop offset="0.265625" stop-color="#6FC6F2"/>
<stop offset="0.269531" stop-color="#70C7F2"/>
<stop offset="0.273438" stop-color="#72C7F2"/>
<stop offset="0.277344" stop-color="#73C8F2"/>
<stop offset="0.28125" stop-color="#75C8F2"/>
<stop offset="0.285156" stop-color="#76C9F2"/>
<stop offset="0.289062" stop-color="#78CAF2"/>
<stop offset="0.292969" stop-color="#79CAF2"/>
<stop offset="0.296875" stop-color="#7BCBF2"/>
<stop offset="0.300781" stop-color="#7CCBF2"/>
<stop offset="0.304688" stop-color="#7DCCF3"/>
<stop offset="0.308594" stop-color="#7FCCF3"/>
<stop offset="0.3125" stop-color="#80CDF3"/>
<stop offset="0.316406" stop-color="#82CDF3"/>
<stop offset="0.320313" stop-color="#83CEF3"/>
<stop offset="0.324219" stop-color="#85CEF3"/>
<stop offset="0.328125" stop-color="#86CFF3"/>
<stop offset="0.332031" stop-color="#87CFF3"/>
<stop offset="0.335938" stop-color="#89D0F3"/>
<stop offset="0.339844" stop-color="#8AD1F3"/>
<stop offset="0.34375" stop-color="#8CD1F4"/>
<stop offset="0.347656" stop-color="#8DD2F4"/>
<stop offset="0.351562" stop-color="#8FD2F4"/>
<stop offset="0.355469" stop-color="#90D3F4"/>
<stop offset="0.359375" stop-color="#92D3F4"/>
<stop offset="0.363281" stop-color="#93D4F4"/>
<stop offset="0.367188" stop-color="#94D4F4"/>
<stop offset="0.371094" stop-color="#96D5F4"/>
<stop offset="0.375" stop-color="#97D5F4"/>
<stop offset="0.378906" stop-color="#99D6F4"/>
<stop offset="0.382812" stop-color="#9AD7F4"/>
<stop offset="0.386719" stop-color="#9CD7F5"/>
<stop offset="0.390625" stop-color="#9DD8F5"/>
<stop offset="0.394531" stop-color="#9ED8F5"/>
<stop offset="0.398438" stop-color="#A0D9F5"/>
<stop offset="0.402344" stop-color="#A1D9F5"/>
<stop offset="0.40625" stop-color="#A3DAF5"/>
<stop offset="0.410156" stop-color="#A4DAF5"/>
<stop offset="0.414063" stop-color="#A6DBF5"/>
<stop offset="0.417969" stop-color="#A7DBF5"/>
<stop offset="0.421875" stop-color="#A9DCF5"/>
<stop offset="0.425781" stop-color="#AADCF6"/>
<stop offset="0.429688" stop-color="#ABDDF6"/>
<stop offset="0.433594" stop-color="#ADDEF6"/>
<stop offset="0.4375" stop-color="#AEDEF6"/>
<stop offset="0.441406" stop-color="#B0DFF6"/>
<stop offset="0.445313" stop-color="#B1DFF6"/>
<stop offset="0.449219" stop-color="#B3E0F6"/>
<stop offset="0.453125" stop-color="#B4E0F6"/>
<stop offset="0.457031" stop-color="#B6E1F6"/>
<stop offset="0.460938" stop-color="#B7E1F6"/>
<stop offset="0.464844" stop-color="#B8E2F7"/>
<stop offset="0.46875" stop-color="#BAE2F7"/>
<stop offset="0.472656" stop-color="#BBE3F7"/>
<stop offset="0.476563" stop-color="#BDE4F7"/>
<stop offset="0.480469" stop-color="#BEE4F7"/>
<stop offset="0.484375" stop-color="#C0E5F7"/>
<stop offset="0.488281" stop-color="#C1E5F7"/>
<stop offset="0.492188" stop-color="#C2E6F7"/>
<stop offset="0.496094" stop-color="#C4E6F7"/>
<stop offset="0.5" stop-color="#C5E7F7"/>
<stop offset="0.503906" stop-color="#C7E7F7"/>
<stop offset="0.507813" stop-color="#C8E8F8"/>
<stop offset="0.511719" stop-color="#CAE8F8"/>
<stop offset="0.515625" stop-color="#CBE9F8"/>
<stop offset="0.519531" stop-color="#CDEAF8"/>
<stop offset="0.523438" stop-color="#CEEAF8"/>
<stop offset="0.527344" stop-color="#CFEBF8"/>
<stop offset="0.53125" stop-color="#D1EBF8"/>
<stop offset="0.535156" stop-color="#D2ECF8"/>
<stop offset="0.539062" stop-color="#D4ECF8"/>
<stop offset="0.542969" stop-color="#D5EDF8"/>
<stop offset="0.546875" stop-color="#D7EDF9"/>
<stop offset="0.550781" stop-color="#D8EEF9"/>
<stop offset="0.554688" stop-color="#DAEEF9"/>
<stop offset="0.558594" stop-color="#DBEFF9"/>
<stop offset="0.5625" stop-color="#DCEFF9"/>
<stop offset="0.566406" stop-color="#DEF0F9"/>
<stop offset="0.570313" stop-color="#DFF1F9"/>
<stop offset="0.574219" stop-color="#E1F1F9"/>
<stop offset="0.578125" stop-color="#E2F2F9"/>
<stop offset="0.582031" stop-color="#E4F2F9"/>
<stop offset="0.585938" stop-color="#E5F3FA"/>
<stop offset="0.589844" stop-color="#E6F3FA"/>
<stop offset="0.59375" stop-color="#E8F4FA"/>
<stop offset="0.597656" stop-color="#E9F4FA"/>
<stop offset="0.601563" stop-color="#EBF5FA"/>
<stop offset="0.605469" stop-color="#ECF5FA"/>
<stop offset="0.609375" stop-color="#EEF6FA"/>
<stop offset="0.613281" stop-color="#EFF7FA"/>
<stop offset="0.617188" stop-color="#F1F7FA"/>
<stop offset="0.621094" stop-color="#F2F8FA"/>
<stop offset="0.625" stop-color="#F3F8FA"/>
<stop offset="0.628906" stop-color="#F5F9FB"/>
<stop offset="0.632813" stop-color="#F6F9FB"/>
<stop offset="0.636719" stop-color="#F8FAFB"/>
<stop offset="0.640625" stop-color="#F9FAFB"/>
<stop offset="0.644531" stop-color="#FAFBFB"/>
<stop offset="0.648438" stop-color="#FBFBFB"/>
<stop offset="0.65625" stop-color="#FBFBFB"/>
<stop offset="0.6875" stop-color="#FBFBFB"/>
<stop offset="0.75" stop-color="#FBFBFB"/>
<stop offset="0.939086" stop-color="#FBFBFB"/>
<stop offset="1" stop-color="#FBFBFB"/>
</linearGradient>
<clipPath id="clip0_54824_94">
<rect width="500" height="500" fill="white"/>
</clipPath>
</defs>
</svg>
